<svg xmlns="http://www.w3.org/2000/svg" viewBox="0 0 200 200">
  <!-- Pot -->
  <path d="M 65 130 L 75 180 L 125 180 L 135 130 Z" fill="#8B4513" stroke="#654321" stroke-width="2"/>
  <ellipse cx="100" cy="130" rx="35" ry="10" fill="#A0522D"/>
  
  <!-- Soil -->
  <ellipse cx="100" cy="132" rx="33" ry="8" fill="#654321"/>
  
  <!-- Main stem -->
  <path d="M 100 130 Q 100 110 100 90" stroke="#1B5E20" stroke-width="5" fill="none"/>
  
  <!-- Fern fronds (multiple elegant leaves) -->
  <!-- Left fronds -->
  <path d="M 100 120 Q 70 115 60 100 Q 65 105 70 110 Q 75 115 80 118" 
        stroke="#388E3C" stroke-width="3" fill="none"/>
  <path d="M 100 110 Q 75 105 65 90 Q 70 95 75 100 Q 80 105 85 108" 
        stroke="#43A047" stroke-width="3" fill="none"/>
  <path d="M 100 100 Q 80 95 70 80 Q 75 85 80 90 Q 85 95 90 98" 
        stroke="#4CAF50" stroke-width="3" fill="none"/>
  
  <!-- Right fronds -->
  <path d="M 100 120 Q 130 115 140 100 Q 135 105 130 110 Q 125 115 120 118" 
        stroke="#388E3C" stroke-width="3" fill="none"/>
  <path d="M 100 110 Q 125 105 135 90 Q 130 95 125 100 Q 120 105 115 108" 
        stroke="#43A047" stroke-width="3" fill="none"/>
  <path d="M 100 100 Q 120 95 130 80 Q 125 85 120 90 Q 115 95 110 98" 
        stroke="#4CAF50" stroke-width="3" fill="none"/>
  
  <!-- Top fronds -->
  <path d="M 100 90 Q 90 75 85 60 Q 90 65 95 70 Q 98 75 100 78" 
        stroke="#66BB6A" stroke-width="3" fill="none"/>
  <path d="M 100 90 Q 110 75 115 60 Q 110 65 105 70 Q 102 75 100 78" 
        stroke="#66BB6A" stroke-width="3" fill="none"/>
  
  <!-- Small leaflets on fronds -->
  <ellipse cx="75" cy="115" rx="5" ry="3" fill="#66BB6A" transform="rotate(-45 75 115)"/>
  <ellipse cx="125" cy="115" rx="5" ry="3" fill="#66BB6A" transform="rotate(45 125 115)"/>
  <ellipse cx="70" cy="100" rx="5" ry="3" fill="#66BB6A" transform="rotate(-50 70 100)"/>
  <ellipse cx="130" cy="100" rx="5" ry="3" fill="#66BB6A" transform="rotate(50 130 100)"/>
  
  <!-- Book pages (decorative element) -->
  <rect x="90" y="140" width="20" height="3" fill="#FFF" opacity="0.7" rx="1"/>
  <rect x="92" y="145" width="16" height="3" fill="#FFF" opacity="0.6" rx="1"/>
</svg>
